<svg width="688" height="751" viewBox="0 0 688 751" fill="none" xmlns="http://www.w3.org/2000/svg">
<rect width="688" height="751" fill="#edb507"/>
<path d="M201.559 329.699H218.098V389.348C218.098 395.886 216.552 401.637 213.462 406.601C210.4 411.564 206.091 415.442 200.533 418.236C194.976 421 188.482 422.382 181.052 422.382C173.592 422.382 167.083 421 161.525 418.236C155.968 415.442 151.658 411.564 148.597 406.601C145.536 401.637 144.005 395.886 144.005 389.348V329.699H160.545V387.966C160.545 391.77 161.377 395.158 163.041 398.13C164.735 401.102 167.113 403.435 170.174 405.129C173.235 406.794 176.861 407.626 181.052 407.626C185.242 407.626 188.868 406.794 191.929 405.129C195.02 403.435 197.398 401.102 199.062 398.13C200.726 395.158 201.559 391.77 201.559 387.966V329.699ZM251.5 380.878V421H235.362V352.524H250.786V364.16H251.589C253.164 360.326 255.675 357.28 259.123 355.021C262.6 352.762 266.895 351.633 272.007 351.633C276.732 351.633 280.849 352.643 284.356 354.664C287.892 356.685 290.627 359.613 292.558 363.447C294.52 367.281 295.486 371.932 295.456 377.4V421H279.318V379.897C279.318 375.32 278.129 371.739 275.752 369.153C273.404 366.567 270.149 365.274 265.988 365.274C263.165 365.274 260.654 365.899 258.454 367.147C256.285 368.365 254.576 370.134 253.328 372.452C252.109 374.77 251.5 377.579 251.5 380.878ZM311.862 421V352.524H328V421H311.862ZM319.975 342.806C317.419 342.806 315.22 341.959 313.377 340.265C311.535 338.541 310.613 336.476 310.613 334.068C310.613 331.631 311.535 329.566 313.377 327.871C315.22 326.148 317.419 325.286 319.975 325.286C322.561 325.286 324.76 326.148 326.573 327.871C328.416 329.566 329.337 331.631 329.337 334.068C329.337 336.476 328.416 338.541 326.573 340.265C324.76 341.959 322.561 342.806 319.975 342.806ZM344.595 421V352.524H360.02V364.16H360.822C362.249 360.237 364.611 357.176 367.91 354.976C371.209 352.747 375.147 351.633 379.724 351.633C384.361 351.633 388.269 352.762 391.449 355.021C394.659 357.25 396.917 360.296 398.225 364.16H398.938C400.454 360.356 403.01 357.324 406.606 355.066C410.232 352.777 414.527 351.633 419.49 351.633C425.791 351.633 430.932 353.624 434.915 357.607C438.897 361.589 440.889 367.399 440.889 375.038V421H424.706V377.534C424.706 373.284 423.576 370.178 421.318 368.217C419.059 366.226 416.295 365.23 413.026 365.23C409.132 365.23 406.086 366.448 403.887 368.885C401.717 371.293 400.632 374.428 400.632 378.292V421H384.806V376.865C384.806 373.329 383.736 370.505 381.597 368.395C379.486 366.285 376.722 365.23 373.305 365.23C370.986 365.23 368.876 365.824 366.974 367.013C365.072 368.172 363.556 369.822 362.427 371.962C361.298 374.072 360.733 376.538 360.733 379.362V421H344.595ZM476.965 422.382C472.626 422.382 468.718 421.609 465.241 420.064C461.793 418.489 459.059 416.17 457.038 413.109C455.047 410.048 454.051 406.274 454.051 401.786C454.051 397.922 454.764 394.727 456.191 392.201C457.617 389.675 459.564 387.654 462.031 386.138C464.498 384.622 467.276 383.478 470.367 382.705C473.488 381.903 476.713 381.323 480.041 380.967C484.054 380.551 487.308 380.179 489.804 379.852C492.301 379.496 494.114 378.961 495.243 378.247C496.402 377.504 496.982 376.36 496.982 374.815V374.547C496.982 371.189 495.986 368.588 493.995 366.746C492.004 364.903 489.136 363.982 485.391 363.982C481.438 363.982 478.303 364.844 475.984 366.567C473.696 368.291 472.151 370.327 471.348 372.675L456.28 370.535C457.469 366.374 459.43 362.897 462.165 360.103C464.899 357.28 468.242 355.17 472.195 353.773C476.148 352.346 480.517 351.633 485.302 351.633C488.601 351.633 491.885 352.019 495.154 352.792C498.423 353.565 501.41 354.843 504.115 356.626C506.819 358.379 508.989 360.772 510.623 363.803C512.288 366.835 513.12 370.624 513.12 375.171V421H497.606V411.594H497.071C496.09 413.496 494.708 415.279 492.925 416.943C491.172 418.578 488.957 419.9 486.283 420.911C483.637 421.892 480.532 422.382 476.965 422.382ZM481.156 410.524C484.395 410.524 487.204 409.885 489.582 408.607C491.959 407.299 493.787 405.575 495.065 403.435C496.373 401.295 497.026 398.962 497.026 396.436V388.367C496.521 388.783 495.659 389.17 494.441 389.526C493.252 389.883 491.915 390.195 490.429 390.462C488.943 390.73 487.471 390.968 486.015 391.176C484.559 391.384 483.296 391.562 482.226 391.711C479.818 392.038 477.664 392.573 475.762 393.316C473.859 394.059 472.359 395.099 471.259 396.436C470.159 397.744 469.609 399.438 469.609 401.518C469.609 404.49 470.694 406.734 472.864 408.25C475.033 409.766 477.797 410.524 481.156 410.524ZM545.485 329.699V421H529.347V329.699H545.485Z" fill="white"/>
</svg>
